<?xml version="1.0" encoding="utf-8"?>
<!-- Generator: Adobe Illustrator 22.0.1, SVG Export Plug-In . SVG Version: 6.00 Build 0)  -->
<svg version="1.1" id="Calque_1" xmlns="http://www.w3.org/2000/svg" xmlns:xlink="http://www.w3.org/1999/xlink" x="0px" y="0px"
	 viewBox="0 0 1920 1080" style="enable-background:new 0 0 1920 1080;" xml:space="preserve">
<style type="text/css">
	.st0{display:none;fill:url(#SVGID_1_);}
	.st1{fill:#EE4FA1;}
	.st2{fill:#FFFFFF;}
	.st3{font-family:'BaiJamjuree-Bold';}
	.st4{font-size:317.2406px;}
	.st5{display:none;}
	.st6{display:inline;}
	.st7{display:inline;fill:#FFFFFF;}
	.st8{font-size:317.5327px;}
</style>
<g id="Calque_1_1_">
	
		<linearGradient id="SVGID_1_" gradientUnits="userSpaceOnUse" x1="1637.4722" y1="1027.9802" x2="-204.8805" y2="-298.5139" gradientTransform="matrix(1 0 0 -1 0 1080.2362)">
		<stop  offset="0" style="stop-color:#0C1181"/>
		<stop  offset="0.3196" style="stop-color:#0A0E6D"/>
		<stop  offset="0.721" style="stop-color:#090C5A"/>
		<stop  offset="1" style="stop-color:#080B53"/>
		<stop  offset="1" style="stop-color:#171717"/>
	</linearGradient>
	<rect x="1.3" y="0" class="st0" width="1917.5" height="1080"/>
	<path class="st1" d="M203.1,559.7L203.1,559.7c-11.2-12.1-11.5-32.3-0.8-44.9l237.6-278.6c10.7-12.6,28.7-13,39.9-0.9l0,0
		c11.2,12.1,11.5,32.3,0.8,44.9L243,558.8C232.3,571.4,214.3,571.8,203.1,559.7z"/>
	<path class="st1" d="M441.3,233.9L441.3,233.9c10.8-12.5,28.7-12.8,39.9-0.7l253.5,275.9c11.2,12.2,11.5,32.4,0.8,44.9l0,0
		c-10.8,12.5-28.7,12.8-39.9,0.7L442.1,278.8C430.9,266.7,430.6,246.5,441.3,233.9z"/>
	<path class="st1" d="M377.9,559.9L377.9,559.9c-11.3-12-12-32.1-1.4-44.9l145.2-174.7c10.6-12.7,28.5-13.4,39.9-1.4l0,0
		c11.3,12,12,32.1,1.4,44.9L417.7,558.5C407.1,571.2,389.2,571.9,377.9,559.9z"/>
	<path class="st1" d="M391.8,780.7L391.8,780.7c-15.5-0.4-27.9-13.5-27.6-29l4.7-215.1c0.3-15.5,13.3-27.9,28.8-27.5l0,0
		c15.5,0.4,27.9,13.5,27.6,29l-4.7,215.1C420.3,768.8,407.3,781.2,391.8,780.7z"/>
	<path class="st1" d="M710.5,790.7L710.5,790.7c-15.5-0.4-27.9-14-27.5-30.1l5-227c0.4-16.1,13.3-28.9,28.8-28.5l0,0
		c15.5,0.4,27.9,14,27.5,30.1l-5,227C739,778.3,726,791.1,710.5,790.7z"/>
	<path class="st1" d="M215.9,812.4L215.9,812.4c-15.5-0.4-27.9-15.1-27.5-32.5l5.4-241.6c0.4-17.5,13.4-31.4,28.9-30.9l0,0
		c15.5,0.4,27.9,15.1,27.5,32.5l-5.4,241.6C244.4,798.9,231.4,812.8,215.9,812.4z"/>
	<path class="st1" d="M363.5,807.6v-53.9c0-2.6,2.2-4.8,4.8-4.8H734c2.6,0,4.8,2.2,4.8,4.8v53.9c0,2.6-2.2,4.8-4.8,4.8H368.3
		C365.6,812.4,363.5,810.3,363.5,807.6z"/>
	<text transform="matrix(1 0 0 1 791.3721 812.4125)" class="st2 st3 st4">EKIMO</text>
	<path class="st1" d="M1262.5,568.5h-26.9c-6.6,0-12-5.4-12-12v-14.9c0-6.6,5.4-12,12-12h26.9c6.6,0,12,5.4,12,12v14.9
		C1274.5,563.1,1269.1,568.5,1262.5,568.5z"/>
</g>
<g id="Calque_2_1_" class="st5">
	<rect y="0" class="st6" width="1919.3" height="1091.9"/>
	<path class="st7" d="M200.8,565.6L200.8,565.6c-11.2-12.1-11.6-32.3-0.8-44.9l237.8-278.8c10.8-12.6,28.7-13,39.9-0.9l0,0
		c11.2,12.1,11.6,32.3,0.8,44.9L240.7,564.7C230,577.3,212,577.7,200.8,565.6z"/>
	<path class="st7" d="M440,238.9L440,238.9c10.8-12.5,28.8-12.7,39.9-0.5l252.4,277.3c11.1,12.2,11.4,32.4,0.5,44.9l0,0
		c-10.8,12.5-28.8,12.7-39.9,0.5L440.6,283.8C429.4,271.6,429.2,251.4,440,238.9z"/>
	<path class="st7" d="M375,570.7L375,570.7c-11.3-12-11.7-32.3-1.1-44.9l146.6-173.9c10.7-12.7,28.6-13.2,39.9-1.1l0,0
		c11.3,12,11.7,32.3,1.1,44.9L414.9,569.5C404.2,582.2,386.2,582.7,375,570.7z"/>
	<path class="st7" d="M389.2,806.5L389.2,806.5c-15.5-0.4-27.9-14.4-27.5-31.1l5.1-230.8c0.4-16.7,13.4-30,28.9-29.5l0,0
		c15.5,0.4,27.9,14.4,27.5,31.1L418,777C417.7,793.7,404.7,806.9,389.2,806.5z"/>
	<path class="st7" d="M708.4,806.5L708.4,806.5c-15.5-0.4-27.9-14.4-27.5-31.1l5.2-234.8c0.4-16.7,13.4-29.9,28.9-29.5l0,0
		c15.5,0.4,27.9,14.4,27.5,31.1L737.3,777C736.9,793.6,723.9,806.9,708.4,806.5z"/>
	<path class="st7" d="M213.6,818.6L213.6,818.6c-15.5-0.4-27.9-15.1-27.5-32.6l5.4-241.8c0.4-17.5,13.4-31.4,28.9-31l0,0
		c15.5,0.4,27.9,15.1,27.5,32.6l-5.4,241.8C242.1,805.1,229.1,819,213.6,818.6z"/>
	<path class="st7" d="M361.3,813.8v-53.9c0-2.6,2.2-4.8,4.8-4.8h366.1c2.6,0,4.8,2.2,4.8,4.8v53.9c0,2.6-2.2,4.8-4.8,4.8H366.1
		C363.5,818.6,361.3,816.5,361.3,813.8z"/>
	<text transform="matrix(1 0 0 1 800.104 755.0625)" class="st7 st3 st8">EKIMO</text>
</g>
<g id="Calque_3" class="st5">
	<rect y="0" class="st7" width="1919.3" height="1091.9"/>
	<path class="st6" d="M200.8,565.6L200.8,565.6c-11.2-12.1-11.6-32.3-0.8-44.9l237.8-278.8c10.8-12.6,28.7-13,39.9-0.9l0,0
		c11.2,12.1,11.6,32.3,0.8,44.9L240.7,564.7C230,577.3,212,577.7,200.8,565.6z"/>
	<path class="st6" d="M439.8,239.1L439.8,239.1c10.8-12.5,28.8-12.7,39.9-0.5l252.7,277c11.1,12.2,11.4,32.4,0.6,44.9l0,0
		c-10.8,12.5-28.8,12.7-39.9,0.5L440.4,284C429.3,271.8,429,251.6,439.8,239.1z"/>
	<path class="st6" d="M375.6,569.2L375.6,569.2c-11.3-12-11.9-32.2-1.3-44.9l145.5-174.8c10.6-12.7,28.5-13.4,39.9-1.4l0,0
		c11.3,12,11.9,32.2,1.3,44.9L415.5,567.8C404.9,580.6,387,581.2,375.6,569.2z"/>
	<path class="st6" d="M389.3,802.3L389.3,802.3c-15.5-0.4-27.9-14.2-27.5-30.7l5-227.4c0.4-16.4,13.4-29.5,28.9-29.1l0,0
		c15.5,0.4,27.9,14.2,27.5,30.7l-5,227.4C417.8,789.6,404.8,802.7,389.3,802.3z"/>
	<path class="st6" d="M708.5,802.1L708.5,802.1c-15.5-0.4-27.9-14.2-27.5-30.7l5.1-231.4c0.4-16.4,13.4-29.5,28.9-29.1l0,0
		c15.5,0.4,27.9,14.2,27.5,30.7L737.4,773C737,789.5,724,802.6,708.5,802.1z"/>
	<path class="st6" d="M213.1,818.5L213.1,818.5c-15.5-0.5-27.8-15.2-27.4-32.6l6.1-241.8c0.4-17.5,13.5-31.4,29-30.9l0,0
		c15.5,0.5,27.8,15.2,27.4,32.6l-6.1,241.8C241.7,805.1,228.6,819,213.1,818.5z"/>
	<path class="st6" d="M361.7,813.8v-53.9c0-2.6,2.2-4.8,4.8-4.8h365.7c2.6,0,4.8,2.2,4.8,4.8v53.9c0,2.6-2.2,4.8-4.8,4.8H366.5
		C363.9,818.6,361.7,816.5,361.7,813.8z"/>
	<text transform="matrix(1 0 0 1 800.104 755.0625)" class="st6 st3 st8">EKIMO</text>
</g>
</svg>
