<svg id="Calque_1" data-name="Calque 1" xmlns="http://www.w3.org/2000/svg" xmlns:xlink="http://www.w3.org/1999/xlink" viewBox="0 0 497.48 497.48"><defs><style>.cls-1{fill:url(#Nouvelle_nuance_de_dégradé_1);}.cls-2{fill:#ee4fa1;}</style><linearGradient id="Nouvelle_nuance_de_dégradé_1" x1="460.87" y1="96" x2="-116.03" y2="511.37" gradientUnits="userSpaceOnUse"><stop offset="0" stop-color="#0c1181"/><stop offset="0.32" stop-color="#0a0e6d"/><stop offset="0.72" stop-color="#090c5a"/><stop offset="1" stop-color="#080b53"/><stop offset="1" stop-color="#171717"/></linearGradient></defs><title>new-logo-ekimo-pour-site</title><rect class="cls-1" width="497.48" height="497.48" rx="12" ry="12"/><path class="cls-2" d="M125.66,253.1h0a17.28,17.28,0,0,1-.4-22.34L243.5,92.1a13,13,0,0,1,19.84-.46h0a17.3,17.3,0,0,1,.4,22.35L145.5,252.65A13,13,0,0,1,125.66,253.1Z" transform="translate(-6.76 -6.76)"/><path class="cls-2" d="M212.5,260.54h0a17.3,17.3,0,0,1-.4-22.35l73.38-86.05a13,13,0,0,1,19.84-.45h0a17.3,17.3,0,0,1,.41,22.34l-73.38,86A13,13,0,0,1,212.5,260.54Z" transform="translate(-6.76 -6.76)"/><path class="cls-2" d="M245.07,91.62h0a13,13,0,0,1,19.84,0L389,230.77a17.3,17.3,0,0,1,0,22.35h0a13,13,0,0,1-19.84,0L245.11,114A17.3,17.3,0,0,1,245.07,91.62Z" transform="translate(-6.76 -6.76)"/><path class="cls-2" d="M223.37,382.28h0c-7.73,0-14.09-6.9-14.12-15.3l-.46-118.34c0-8.4,6.27-15.26,14-15.25h0c7.73,0,14.09,6.91,14.12,15.31L237.38,367C237.41,375.44,231.11,382.3,223.37,382.28Z" transform="translate(-6.76 -6.76)"/><path class="cls-2" d="M135.91,382.28h0c-7.71,0-14.06-7.21-14.09-16l-.46-123.67c0-8.78,6.25-16,14-15.93h0c7.72,0,14.06,7.22,14.1,16l.46,123.66C149.92,375.13,143.63,382.3,135.91,382.28Z" transform="translate(-6.76 -6.76)"/><path class="cls-2" d="M380.13,382.28h0c-7.72,0-14.06-7.21-14.09-16l-.46-123.67c0-8.78,6.25-16,14-15.93h0c7.72,0,14.06,7.22,14.1,16l.46,123.66C394.14,375.13,387.85,382.3,380.13,382.28Z" transform="translate(-6.76 -6.76)"/><path class="cls-2" d="M394.1,368.36h0c-.06,7.72-8.65,14-19.08,14l-146.92-.28c-10.43,0-18.91-6.35-18.85-14.07h0c.06-7.71,8.64-14,19.07-14l146.93.28C385.68,354.31,394.16,360.64,394.1,368.36Z" transform="translate(-6.76 -6.76)"/></svg>